# xmcd
#
# Track frame offsets: 
#        150
#        14425
#        29300
#        42462
#        57400
#        69517
#        86202
#        99480
#        112645
#        126867
#
# Disc length: 1855 seconds
#
# Revision: 2
# Processed by: cddbd v1.4PL0 Copyright (c) Steve Scherf et al.
# Submitted via: ExactAudioCopy v0.90b3
#
DISCID=81073d0a
DTITLE=Chris LeDoux - Thirty Dollar Cowboy
DYEAR=1900
DGENRE=Country
TTITLE0=They Couldn't Understand My Cowboy Songs
TTITLE1=It Ain't The Years, It's The Miles
TTITLE2=The Greatest Prize
TTITLE3=Call Of The Wild
TTITLE4=Thirty Dollar Cowboy
TTITLE5=Montana Rodeo
TTITLE6=The Last Sunset
TTITLE7=A Cowboy's Got To Ride
TTITLE8=Ballad Of Will Rogers
TTITLE9=Take Me Back To Old Wyoming
EXTD=
EXTT0=
EXTT1=
EXTT2=
EXTT3=
EXTT4=
EXTT5=
EXTT6=
EXTT7=
EXTT8=
EXTT9=
PLAYORDER=
